# xmcd
#
# Track frame offsets: 
#        150
#        11655
#        22201
#        35563
#        48142
#        60557
#        72330
#        84775
#        98379
#        112129
#
# Disc length: 1699 seconds
#
# Revision: 0
# Processed by: cddbd v1.5.2PL0 Copyright (c) Steve Scherf et al.
# Submitted via: ExactAudioCopy v0.99pb5
#
DISCID=7806a10a
DTITLE=Billy Joe Royal - Down in The Boondocks and Other Huge Hits
DYEAR=2005
DGENRE=Country
TTITLE0=Down In The Boondocks
TTITLE1=I Fought The Law
TTITLE2=Cherry Hill Park
TTITLE3=Last Kiss
TTITLE4=I Know You When
TTITLE5=The Twist
TTITLE6=I'm So Lonesome I Could Cry
TTITLE7=96 Tears
TTITLE8=Making Believe
TTITLE9=Amen
EXTD=
EXTT0=
EXTT1=
EXTT2=
EXTT3=
EXTT4=
EXTT5=
EXTT6=
EXTT7=
EXTT8=
EXTT9=
PLAYORDER=
